<?xml version="1.0" standalone="no"?>
<!DOCTYPE svg PUBLIC "-//W3C//DTD SVG 20010904//EN"
 "http://www.w3.org/TR/2001/REC-SVG-20010904/DTD/svg10.dtd">
<svg version="1.0" xmlns="http://www.w3.org/2000/svg"
 width="464.000000pt" height="464.000000pt" viewBox="0 0 464.000000 464.000000"
 preserveAspectRatio="xMidYMid meet">

<g transform="translate(0.000000,464.000000) scale(0.100000,-0.100000)"
fill="#000000" stroke="none">
<path d="M825 4483 c-16 -8 -46 -31 -66 -49 l-36 -35 -57 35 c-71 43 -141 60
-217 53 -119 -11 -227 -86 -277 -196 -22 -46 -26 -71 -27 -141 0 -152 -12
-136 517 -659 l461 -456 44 0 43 0 663 -661 c638 -636 666 -663 760 -718 l97
-57 0 -709 c0 -697 0 -710 20 -730 20 -20 33 -20 868 -20 810 0 850 1 865 18
16 17 17 91 17 865 0 834 0 847 -20 867 -20 20 -33 20 -737 20 l-718 0 -49 88
c-47 82 -84 122 -719 758 -622 624 -668 673 -658 693 7 12 9 32 6 44 -4 12
-183 199 -398 415 l-392 393 37 34 c21 19 47 35 59 35 16 0 107 -84 298 -273
152 -150 296 -287 321 -304 115 -78 246 -125 381 -138 67 -6 77 -5 102 15 33
26 36 71 7 100 -15 15 -33 20 -72 20 -75 0 -171 25 -258 67 -69 33 -97 58
-366 324 -186 185 -304 294 -327 304 -47 19 -134 19 -172 -2z m-259 -148 c38
-16 194 -160 194 -179 0 -6 -63 -74 -140 -151 l-140 -140 -81 80 c-45 44 -90
98 -100 120 -46 100 -5 215 96 268 38 21 125 21 171 2z m1562 -1638 l632 -632
-98 -98 -97 -97 -635 635 -635 635 95 95 c52 52 97 95 100 95 3 0 290 -285
638 -633z m2242 -1677 l0 -750 -750 0 -750 0 0 620 c0 341 3 620 6 620 3 0 89
-49 191 -110 102 -60 195 -110 207 -110 36 0 66 28 66 61 0 25 -125 253 -218
397 l-14 22 631 0 631 0 0 -750z"/>
<path d="M3740 1105 l-324 -325 -122 120 c-109 109 -124 120 -157 120 -26 0
-40 -6 -51 -22 -34 -48 -24 -64 137 -225 138 -139 156 -153 188 -153 32 0 59
24 392 358 259 259 357 364 357 380 0 30 -43 72 -72 72 -17 0 -110 -87 -348
-325z"/>
</g>
</svg>
