<svg width="27" height="27" viewBox="0 0 27 27" fill="none" xmlns="http://www.w3.org/2000/svg">
<path d="M13.5403 0.959485C11.266 0.959713 9.03467 1.5784 7.08503 2.74932C5.13538 3.92024 3.54086 5.59931 2.47214 7.6068C1.40342 9.61428 0.900744 11.8746 1.01791 14.1458C1.13508 16.4171 1.86768 18.6137 3.1373 20.5005L1 26.0401L6.7031 24.0009C8.33872 25.0685 10.2011 25.7393 12.1418 25.9599C14.0826 26.1804 16.048 25.9445 17.8815 25.2711C19.7149 24.5976 21.3657 23.5052 22.7022 22.0808C24.0388 20.6565 25.0242 18.9397 25.5798 17.0671C26.1355 15.1946 26.246 13.2182 25.9027 11.2954C25.5593 9.37257 24.7716 7.55654 23.6022 5.99204C22.4328 4.42755 20.9142 3.15783 19.1673 2.2841C17.4204 1.41037 15.4935 0.956779 13.5403 0.959485Z" stroke="white" stroke-linecap="round" stroke-linejoin="round"/>
<path d="M10.8145 16.2261C12.2321 17.6437 15.3617 19.4975 16.812 19.4975C17.4482 19.5041 18.0671 19.2905 18.5639 18.8931C19.0607 18.4956 19.4049 17.9387 19.5382 17.3166V16.2261C19.5382 16.2261 18.1969 15.5718 17.3573 15.1357C16.5176 14.6995 15.1763 16.2261 15.1763 16.2261C14.1558 15.8937 13.2238 15.3344 12.4502 14.5904C11.7062 13.8168 11.147 12.8848 10.8145 11.8643C10.8145 11.8643 12.3411 10.523 11.905 9.68336C11.4688 8.84371 10.8145 7.50244 10.8145 7.50244H9.72403C9.10192 7.63569 8.54497 7.97986 8.14752 8.47667C7.75007 8.97348 7.53655 9.5924 7.54312 10.2286C7.54312 11.6789 9.3969 14.8085 10.8145 16.2261Z" stroke="white" stroke-linecap="round" stroke-linejoin="round"/>
</svg>
